<svg id="Capa_1" enable-background="new 0 0 512 512" height="512" viewBox="0 0 512 512" width="512" xmlns="http://www.w3.org/2000/svg" xmlns:xlink="http://www.w3.org/1999/xlink"><linearGradient id="SVGID_1_" gradientUnits="userSpaceOnUse" x1="256" x2="256" y1="512" y2="30"><stop offset="0" stop-color="#5558ff"/><stop offset="1" stop-color="#00c0ff"/></linearGradient><linearGradient id="SVGID_2_" gradientUnits="userSpaceOnUse" x1="256" x2="256" y1="451" y2="0"><stop offset="0" stop-color="#addcff"/><stop offset=".5028" stop-color="#eaf6ff"/><stop offset="1" stop-color="#eaf6ff"/></linearGradient><g><g><g><path d="m504.8 80.7c-8.1-12.9-22.5-20.7-37.8-20.7h-76l-14.043-30-15.957 30h-120l-14.681-30-15.319 30h-120l-14.362-30-15.638 30h-16c-24.9 0-45 20.1-45 45v392c0 8.399 6.599 15 15 15h482c8.401 0 15-6.601 15-15v-392c0-8.701-2.4-17.1-7.2-24.3z" fill="url(#SVGID_1_)"/></g></g><g><g><path d="m91 45c0-8.401 6.599-15 15-15s15 6.599 15 15v60c0 8.399-6.599 15-15 15s-15 6.599-15 15c0 8.399 6.599 15 15 15 24.9 0 45-20.101 45-45v-60c0-24.9-20.1-45-45-45s-45 20.1-45 45v15h30zm150 0c0-8.401 6.599-15 15-15s15 6.599 15 15v60c0 8.399-6.599 15-15 15s-15 6.599-15 15c0 8.399 6.599 15 15 15 24.9 0 45-20.101 45-45v-60c0-24.9-20.1-45-45-45s-45 20.1-45 45v15h30zm165-45c-24.9 0-45 20.1-45 45v15h30v-15c0-8.401 6.599-15 15-15s15 6.599 15 15v60c0 8.399-6.599 15-15 15s-15 6.599-15 15c0 8.399 6.599 15 15 15 24.9 0 45-20.101 45-45v-60c0-24.9-20.1-45-45-45zm30 181h-360c-8.291 0-15 6.709-15 15v240c0 8.291 6.709 15 15 15h360c8.291 0 15-6.709 15-15v-240c0-8.291-6.709-15-15-15zm-285 240h-60v-30h60zm0-60h-60v-30h60zm0-60h-60v-30h60zm0-60h-60v-30h60zm90 180h-60v-30h60zm0-60h-60v-30h60zm0-60h-60v-30h60zm0-60h-60v-30h60zm90 180h-60v-30h60zm0-60h-60v-30h60zm0-60h-60v-30h60zm0-60h-60v-30h60zm90 180h-60v-30h60zm0-60h-60v-30h60zm0-60h-60v-30h60zm0-60h-60v-30h60z" fill="url(#SVGID_2_)"/></g></g></g></svg>